<?xml version="1.0" encoding="utf-8"?>
<svg viewBox="0 0 689 689" width="689" height="689" xmlns="http://www.w3.org/2000/svg">
  <path fill="#00C7D4" opacity="1.000000" stroke="none" d=" M690.000000,6.000000 C690.000000,26.020895 690.000000,46.041790 689.606750,66.278656 C688.811584,67.345108 688.100159,68.179169 688.054016,69.048531 C687.319092,82.895859 686.826111,96.757591 685.953186,110.595543 C685.177673,122.889656 684.122498,135.169846 682.970215,147.435455 C681.775696,160.150940 680.851807,172.926971 678.843079,185.522369 C676.028748,203.167877 672.681702,220.748779 668.909546,238.216309 C663.318970,264.104889 655.253723,289.245026 643.934692,313.247559 C633.209045,335.991974 619.296204,356.445801 599.927734,373.199310 C599.474243,373.624969 599.230896,373.885712 599.005493,374.087372 C599.023499,374.028290 599.140991,374.066376 598.779053,374.094666 C596.005310,375.547943 593.543152,376.894714 591.189575,378.410187 C569.717957,392.235596 545.590698,396.669922 520.750305,396.696594 C506.414612,396.712006 491.951691,394.679291 477.763855,392.280243 C445.964172,386.903229 415.711060,376.168488 385.954926,363.982574 C377.053284,360.337097 368.164185,356.660858 359.364014,352.644470 C359.581024,348.139282 359.703369,343.988373 360.147125,339.600922 C391.726562,324.250061 421.269623,306.439392 447.395325,283.389954 C463.444061,269.230896 478.051483,253.792740 487.065430,233.984207 C492.081543,222.961166 494.379486,211.838684 486.307739,201.017395 C496.982666,190.134476 507.315735,179.364349 517.721741,168.665161 C531.844421,154.144592 546.029907,139.685150 560.175354,125.186737 C572.692383,112.357445 585.183533,99.502953 597.700623,86.673752 C611.846252,72.175468 625.951782,57.637394 640.181335,43.221889 C650.948792,32.313698 662.145874,21.816902 672.632202,10.649204 C677.786682,5.159775 682.073914,-0.306426 690.000000,6.000000 z"/>
  <path fill="#00AD46" opacity="1.000000" stroke="none" d=" M687.000000,690.000000 C666.645752,690.000000 646.291565,690.000000 625.538696,689.570801 C624.127930,688.762939 623.130432,688.104004 622.101257,688.050049 C614.167725,687.634338 606.219604,687.469421 598.292114,686.971619 C584.130249,686.082275 569.951904,685.302856 555.831299,683.947510 C538.157715,682.251038 520.452576,680.560608 502.913696,677.872192 C484.131561,674.993103 465.240051,672.030579 446.921265,667.138550 C426.537231,661.694946 406.457184,654.778564 386.765472,647.157898 C359.613220,636.650146 336.295654,620.130005 316.964539,597.834351 C316.131866,595.680969 315.468842,593.787598 314.407227,592.153137 C306.879150,580.563477 301.818176,567.943787 299.033722,554.468201 C293.809601,529.185913 295.129822,503.895416 299.603973,478.670532 C305.419434,445.883362 316.293579,414.656952 328.980652,383.993896 C332.405090,375.717529 335.685944,367.381744 339.394012,359.168060 C343.897278,359.437775 348.039246,359.612640 352.414612,360.046082 C369.297302,394.382141 388.819916,426.576630 415.048431,454.264893 C428.388458,468.347351 442.915497,481.019165 461.230988,488.374756 C471.391571,492.455322 481.529755,493.665863 490.996368,486.287109 C501.985168,497.130005 512.823975,507.663544 523.650391,518.209900 C536.981201,531.195862 550.304810,544.189270 563.625549,557.185486 C577.661194,570.879089 591.663757,584.606750 605.729919,598.268921 C616.797729,609.018921 627.995972,619.634827 639.036133,630.412842 C654.837097,645.838623 670.541565,661.363159 686.305420,676.826904 C687.461792,677.961243 688.765076,678.945801 690.000000,680.000000 C690.000000,681.714355 690.000000,683.428711 689.650452,685.414978 C688.533936,687.124634 687.766968,688.562317 687.000000,690.000000 z"/>
  <path fill="#017CEE" opacity="1.000000" stroke="none" d=" M11.999998,690.000000 C10.285642,690.000000 8.571282,690.000000 6.755974,689.728333 C4.770017,687.637756 2.885011,685.818909 1.000002,684.000000 C1.000000,678.311951 1.000000,672.623962 1.408687,666.672668 C2.211154,665.227966 2.912478,664.056519 2.951372,662.863525 C3.361587,650.281006 3.543318,637.690186 4.033588,625.111267 C4.547671,611.921265 5.133494,598.728210 6.044700,585.561218 C7.167452,569.337341 8.307339,553.100403 10.086190,536.940247 C11.997772,519.574280 13.824250,502.126160 17.200314,485.012238 C21.594873,462.735474 26.863258,440.582428 32.908993,418.694733 C38.148815,399.724731 45.936954,381.632324 55.785099,364.453888 C64.809731,348.711945 75.239288,334.167450 89.013184,321.835815 C89.500977,321.426086 89.760887,321.170746 90.017365,320.968506 C90.013924,321.021637 89.907600,321.016388 90.118347,320.858704 C90.558205,320.436646 90.787308,320.172241 91.015083,319.962128 C91.013756,320.016449 90.905075,320.015198 91.117851,319.861389 C91.557724,319.442993 91.784821,319.178345 92.010834,318.962555 C92.009750,319.011383 91.912064,319.010162 92.129333,318.863983 C92.567383,318.449768 92.788170,318.181732 92.981094,317.955017 C92.953239,317.996307 92.871048,317.939972 93.244316,317.968750 C94.924858,317.343994 96.217033,316.658051 97.541771,316.042145 C108.355766,311.014496 118.789207,304.764771 130.072784,301.232849 C155.315552,293.331451 181.271500,294.566132 207.070007,298.573029 C242.445984,304.067505 276.072266,315.505981 308.945465,329.375702 C316.891815,332.728424 324.920898,335.885040 332.862030,339.497711 C332.698822,344.097565 332.585480,348.331543 332.090424,352.711365 C298.526398,368.763641 267.422119,387.870453 240.238861,412.882568 C225.955292,426.025360 213.088989,440.397705 205.009995,458.347595 C200.109665,469.235138 197.915146,480.244080 205.693024,490.980103 C197.224655,499.612549 189.096771,508.129059 180.896194,516.575012 C167.939728,529.919067 154.958282,543.239136 141.944168,556.526978 C123.687843,575.167358 105.365067,593.742737 87.124847,612.398804 C78.777840,620.936218 70.607346,629.646057 62.273281,638.196228 C46.734730,654.137756 31.130035,670.014771 15.570292,685.935730 C14.311683,687.223572 13.186951,688.642151 11.999998,690.000000 z"/>
  <path fill="#E43921" opacity="1.000000" stroke="none" d=" M8.000000,1.000000 C13.688041,1.000000 19.376081,1.000000 25.382599,1.421937 C26.880638,2.228655 28.049381,2.910550 29.241369,2.953945 C49.255867,3.682577 69.281822,4.144394 89.287201,5.059697 C104.260872,5.744785 119.231239,6.738087 134.161987,8.058722 C149.348389,9.401970 164.549683,10.870357 179.626419,13.086833 C199.486679,16.006548 219.434036,18.822552 238.980118,23.278885 C270.200836,30.396933 300.636566,40.139412 328.636963,56.248745 C344.396393,65.315559 358.843628,76.041679 371.117310,89.956520 C371.533264,90.479561 371.804596,90.748230 372.030365,91.013123 C371.984772,91.009346 371.991241,90.918068 372.114929,91.152405 C372.519287,91.593628 372.800018,91.800514 373.042236,91.997559 C373.003723,91.987709 373.024017,91.910866 373.054138,92.244888 C373.750549,93.042641 374.416840,93.506378 375.049713,93.975555 C375.016266,93.980995 375.044342,93.919319 374.985596,94.288506 C377.679749,99.568405 380.625214,104.382210 383.153870,109.405800 C397.833435,138.569092 398.715942,169.594955 394.591888,201.024384 C390.126251,235.057022 379.516602,267.474030 366.841125,299.236511 C362.342712,310.508667 357.460083,321.627472 352.419434,332.731445 C347.899902,332.445343 343.713776,332.244080 339.339294,331.714539 C326.985352,305.965607 312.806213,281.751282 295.504974,259.463226 C279.698242,239.100418 262.370178,220.237274 239.375092,207.744888 C227.121307,201.087860 214.358261,196.422165 201.014694,205.694321 C190.378830,195.226379 179.877853,185.081375 169.415527,174.896637 C155.494080,161.344559 141.604523,147.759735 127.697983,134.192322 C114.267952,121.089790 100.811157,108.014595 87.406853,94.885811 C68.889755,76.749344 50.436859,58.547287 31.903976,40.427002 C23.367077,32.080158 14.727951,23.837318 6.091402,15.593178 C1.647265,11.350965 1.817812,6.748425 6.592140,3.113479 C7.228768,2.628781 7.538750,1.715048 8.000000,1.000000 z"/>
  <path fill="#000000" opacity="1.000000" stroke="none" d=" M1.000002,684.499512 C2.885011,685.818909 4.770017,687.637756 6.327512,689.728333 C4.412534,690.000000 2.825068,690.000000 1.000000,690.000000 C1.000000,688.335876 1.000000,686.667419 1.000002,684.499512 z"/>
  <path fill="#000000" opacity="1.000000" stroke="none" d=" M687.500000,690.000000 C687.766968,688.562317 688.533936,687.124634 689.650452,685.843445 C689.170654,687.252014 691.962952,690.314819 687.500000,690.000000 z"/>
  <path opacity="1.000000" stroke="none" d=" M598.779053,374.094666 C598.364380,375.273743 597.769348,376.659363 596.784546,377.662292 C574.909729,399.939545 552.969482,422.152527 531.090515,444.425720 C517.727722,458.029266 504.446808,471.713135 490.984985,485.672180 C481.529755,493.665863 471.391571,492.455322 461.230988,488.374756 C442.915497,481.019165 428.388458,468.347351 415.048431,454.264893 C388.819916,426.576630 369.297302,394.382141 352.620239,359.816833 C354.818115,357.218933 357.043732,355.108826 359.269348,352.998718 C368.164185,356.660858 377.053284,360.337097 385.954926,363.982574 C415.711060,376.168488 445.964172,386.903229 477.763855,392.280243 C491.951691,394.679291 506.414612,396.712006 520.750305,396.696594 C545.590698,396.669922 569.717957,392.235596 591.189575,378.410187 C593.543152,376.894714 596.005310,375.547943 598.779053,374.094666 z" style="fill: rgb(227, 165, 77);"/>
  <path opacity="1.000000" stroke="none" d=" M374.985596,94.288506 C380.043335,98.459297 385.197449,102.841095 390.014984,107.566071 C413.490906,130.590988 436.849457,153.735504 460.309357,176.776825 C468.578430,184.898361 477.017548,192.846817 485.688660,201.018036 C494.379486,211.838684 492.081543,222.961166 487.065430,233.984207 C478.051483,253.792740 463.444061,269.230896 447.395325,283.389954 C421.269623,306.439392 391.726562,324.250061 359.901184,339.328674 C357.140198,337.134064 354.946533,334.975189 352.752838,332.816284 C357.460083,321.627472 362.342712,310.508667 366.841125,299.236511 C379.516602,267.474030 390.126251,235.057022 394.591888,201.024384 C398.715942,169.594955 397.833435,138.569092 383.153870,109.405800 C380.625214,104.382210 377.679749,99.568405 374.985596,94.288506 z" style="fill: rgb(227, 165, 77);"/>
  <path fill="#4A4949" opacity="1.000000" stroke="none" d=" M352.419434,332.731445 C354.946533,334.975189 357.140198,337.134064 359.579834,339.565186 C359.703369,343.988373 359.581024,348.139282 359.364014,352.644470 C357.043732,355.108826 354.818115,357.218933 352.386871,359.558289 C348.039246,359.612640 343.897278,359.437775 339.117645,358.975708 C336.477356,356.647491 334.474731,354.606506 332.472137,352.565521 C332.585480,348.331543 332.698822,344.097565 333.092041,339.233276 C335.423828,336.416260 337.475769,334.229553 339.527679,332.042816 C343.713776,332.244080 347.899902,332.445343 352.419434,332.731445 z"/>
  <path fill="#11E1EE" opacity="1.000000" stroke="none" d=" M599.927734,373.199310 C599.932556,373.339722 599.727234,373.645050 599.254761,374.048401 C599.230896,373.885712 599.474243,373.624969 599.927734,373.199310 z"/>
  <path opacity="1.000000" stroke="none" d=" M332.090424,352.711365 C334.474731,354.606506 336.477356,356.647491 338.756348,358.880859 C335.685944,367.381744 332.405090,375.717529 328.980652,383.993896 C316.293579,414.656952 305.419434,445.883362 299.603973,478.670532 C295.129822,503.895416 293.809601,529.185913 299.033722,554.468201 C301.818176,567.943787 306.879150,580.563477 314.407227,592.153137 C315.468842,593.787598 316.131866,595.680969 316.964539,597.834351 C309.255341,590.931458 301.458160,583.753601 293.886292,576.345520 C273.114105,556.022827 252.465363,535.573975 231.707443,515.236633 C223.423386,507.120361 214.980911,499.165802 206.305710,490.985107 C197.915146,480.244080 200.109665,469.235138 205.009995,458.347595 C213.088989,440.397705 225.955292,426.025360 240.238861,412.882568 C267.422119,387.870453 298.526398,368.763641 332.090424,352.711365 z" style="fill: rgb(227, 165, 77);"/>
  <path opacity="1.000000" stroke="none" d=" M339.339294,331.714539 C337.475769,334.229553 335.423828,336.416260 333.141907,338.867432 C324.920898,335.885040 316.891815,332.728424 308.945465,329.375702 C276.072266,315.505981 242.445984,304.067505 207.070007,298.573029 C181.271500,294.566132 155.315552,293.331451 130.072784,301.232849 C118.789207,304.764771 108.355766,311.014496 97.541771,316.042145 C96.217033,316.658051 94.924858,317.343994 93.244316,317.968750 C102.248558,308.136108 111.535553,298.243713 121.022057,288.546478 C141.914886,267.189636 162.933533,245.955933 183.844421,224.616714 C189.624847,218.717896 195.206879,212.624634 201.023346,206.310089 C214.358261,196.422165 227.121307,201.087860 239.375092,207.744888 C262.370178,220.237274 279.698242,239.100418 295.504974,259.463226 C312.806213,281.751282 326.985352,305.965607 339.339294,331.714539 z" style="fill: rgb(227, 165, 77);"/>
  <path fill="#0CB6FF" opacity="1.000000" stroke="none" d=" M89.013184,321.835815 C89.010536,321.682648 89.235756,321.375061 89.740891,320.991455 C89.760887,321.170746 89.500977,321.426086 89.013184,321.835815 z"/>
  <path fill="#0CB6FF" opacity="1.000000" stroke="none" d=" M90.118347,320.858704 C90.093971,320.698700 90.280350,320.381012 90.741562,319.985565 C90.787308,320.172241 90.558205,320.436646 90.118347,320.858704 z"/>
  <path fill="#0CB6FF" opacity="1.000000" stroke="none" d=" M91.117859,319.861389 C91.091202,319.698914 91.277321,319.382660 91.737679,318.990051 C91.784821,319.178345 91.557724,319.442993 91.117859,319.861389 z"/>
  <path fill="#0CB6FF" opacity="1.000000" stroke="none" d=" M92.129333,318.863983 C92.096085,318.695496 92.280121,318.380859 92.736557,317.989929 C92.788170,318.181732 92.567383,318.449768 92.129333,318.863983 z"/>
  <path fill="#FE7557" opacity="1.000000" stroke="none" d=" M373.054138,92.244888 C373.643921,92.406265 374.263824,92.901649 374.983459,93.683578 C374.416840,93.506378 373.750549,93.042641 373.054138,92.244888 z"/>
  <path fill="#FE7557" opacity="1.000000" stroke="none" d=" M372.114929,91.152405 C372.303650,91.101021 372.616028,91.283966 373.004578,91.737152 C372.800018,91.800514 372.519287,91.593628 372.114929,91.152405 z"/>
  <path fill="#FE7557" opacity="1.000000" stroke="none" d=" M371.117310,89.956520 C371.285004,89.948364 371.597321,90.194580 371.992798,90.728851 C371.804596,90.748230 371.533264,90.479561 371.117310,89.956520 z"/>
</svg>